<?xml version="1.0" encoding="UTF-8" standalone="no"?>
<!DOCTYPE svg PUBLIC "-//W3C//DTD SVG 1.1//EN" "http://www.w3.org/Graphics/SVG/1.1/DTD/svg11.dtd">
<svg version="1.1" xmlns="http://www.w3.org/2000/svg" xmlns:xlink="http://www.w3.org/1999/xlink" preserveAspectRatio="xMidYMid meet" viewBox="0 0 450 400" width="150" height="133.33"><defs><path d="M327.8 193.68L430.6 341.26L225 341.26L19.4 341.26L122.19 193.68L225 46.09L327.8 193.68Z" id="d1qsbjWRrE"></path><path d="M289.55 340.22L289.55 301.18" id="a3bTwAbnGH"></path><path d="M353.43 340.22L353.43 301.18" id="j2Wcd9JAm5"></path><path d="M381.55 274.1L65.2 276.18" id="c3hO7ytDmb"></path><path d="M345.33 218.76L103.54 218.76" id="g13lDH6nf0"></path><path d="M325.51 190.74L124.34 193.68" id="a17azRUZLF"></path><path d="M402.85 302.22L44.96 302.22" id="b2x6Mby28m"></path><path d="" id="i6WQ5rmNsk"></path><path d="M289.55 140.2L161.43 140.2" id="gg5i1DNpB"></path><path d="M270.45 115.3L225.49 115.3L177.16 115.3" id="a6yhy3NhN"></path><path d="M255.83 90.76L224.37 90.76L195.15 90.76" id="af1OcAVkl"></path><path d="M305.28 162.18L144.57 162.18" id="gN5ZrbN"></path><path d="M181.3 192.21L181.3 162.18" id="dJJRlD1MQ"></path><path d="M360.24 243.9L84.37 243.9" id="blwtm1ilt"></path><path d="M245.23 190.74L245.23 162.18" id="ePWDvA3HN"></path><path d="M255.83 275.14L255.83 243.9" id="b15eKl0s6v"></path><path d="M185.56 274.1L185.56 243.9" id="a1pBJ0Bbc9"></path><path d="M109.93 302.22L109.93 276.18" id="a1ldA9IYek"></path><path d="M172.14 302.22L172.14 276.18" id="f5WVP3jY5V"></path><path d="M236.47 302.22L236.47 276.18" id="c93m7TBFK"></path><path d="M300.81 302.22L300.81 276.18" id="d1cLQSxnV"></path><path d="M363.01 301.18L363.01 275.14" id="ea7ajoGg8"></path><path d="M80.11 341.26L80.11 302.22" id="b38leXUlJh"></path><path d="M151.9 340.22L151.9 301.18" id="epHtZVw9n"></path><path d="M224.93 340.22L224.93 301.18" id="awieGP6e"></path><path d="M320.83 275.14L320.83 243.9" id="f1zoEiFNuG"></path><path d="M136.99 275.14L136.99 244.95" id="bJvEbkJ5v"></path><path d="M305.28 243.9L305.28 218.76" id="agcrJWlZt"></path><path d="M155.32 218.76L155.32 241.82" id="aRHnxRvLa"></path><path d="M136.99 218.76L136.99 192.21" id="a5OmuEsKEg"></path><path d="M294.68 218.76L294.68 192.21" id="bc66KZgVs"></path><path d="M261.19 140.2L261.19 162.18" id="aeb7d9vtW"></path><path d="M214.75 140.2L214.75 162.18" id="a29QCzjWjJ"></path><path d="M168.3 140.2L168.3 162.18" id="a5oZY7XBW"></path><path d="M195.15 115.3L195.15 137.28" id="b1yj1XmUOD"></path><path d="M245.23 140.2L245.23 115.3" id="kCFYKLtah"></path><path d="M222.31 115.3L222.31 90.76" id="b1Cbc7vRH"></path><path d="M294.68 218.76C294.68 240.29 263.46 257.76 225 257.76C186.54 257.76 155.32 240.29 155.32 218.76C155.32 197.23 186.54 179.76 225 179.76C263.46 179.76 294.68 197.23 294.68 218.76Z" id="bP2T2ZGy9"></path><path d="M245.23 218.76C245.23 230.28 236.16 239.64 225 239.64C213.84 239.64 204.77 230.28 204.77 218.76C204.77 207.24 213.84 197.89 225 197.89C236.16 197.89 245.23 207.24 245.23 218.76Z" id="d1G9df3Zp0"></path></defs><g><g><g><g><filter id="shadow16391240" x="5.4" y="32.09" width="445.19" height="327.18" filterUnits="userSpaceOnUse" primitiveUnits="userSpaceOnUse"><feFlood></feFlood><feComposite in2="SourceAlpha" operator="in"></feComposite><feGaussianBlur stdDeviation="1"></feGaussianBlur><feOffset dx="6" dy="4" result="afterOffset"></feOffset><feFlood flood-color="#000000" flood-opacity="0.5"></feFlood><feComposite in2="afterOffset" operator="in"></feComposite><feMorphology operator="dilate" radius="1"></feMorphology><feComposite in2="SourceAlpha" operator="out"></feComposite></filter><path d="M327.8 193.68L430.6 341.26L225 341.26L19.4 341.26L122.19 193.68L225 46.09L327.8 193.68Z" id="ei0C2eS7o" fill="white" fill-opacity="1" filter="url(#shadow16391240)"></path></g><use xlink:href="#d1qsbjWRrE" opacity="1" fill="#d2db6b" fill-opacity="1"></use></g><g><g><use xlink:href="#a3bTwAbnGH" opacity="1" fill-opacity="0" stroke="#000000" stroke-width="1" stroke-opacity="1"></use></g></g><g><g><use xlink:href="#j2Wcd9JAm5" opacity="1" fill-opacity="0" stroke="#000000" stroke-width="1" stroke-opacity="1"></use></g></g><g><g><use xlink:href="#c3hO7ytDmb" opacity="1" fill-opacity="0" stroke="#000000" stroke-width="1" stroke-opacity="1"></use></g></g><g><g><use xlink:href="#g13lDH6nf0" opacity="1" fill-opacity="0" stroke="#000000" stroke-width="1" stroke-opacity="1"></use></g></g><g><g><use xlink:href="#a17azRUZLF" opacity="1" fill-opacity="0" stroke="#000000" stroke-width="1" stroke-opacity="1"></use></g></g><g><g><use xlink:href="#b2x6Mby28m" opacity="1" fill-opacity="0" stroke="#000000" stroke-width="1" stroke-opacity="1"></use></g></g><g><g><use xlink:href="#i6WQ5rmNsk" opacity="1" fill-opacity="0" stroke="#000000" stroke-width="1" stroke-opacity="1"></use></g></g><g><g><use xlink:href="#gg5i1DNpB" opacity="1" fill-opacity="0" stroke="#000000" stroke-width="1" stroke-opacity="1"></use></g></g><g><g><use xlink:href="#a6yhy3NhN" opacity="1" fill-opacity="0" stroke="#000000" stroke-width="1" stroke-opacity="1"></use></g></g><g><g><use xlink:href="#af1OcAVkl" opacity="1" fill-opacity="0" stroke="#000000" stroke-width="1" stroke-opacity="1"></use></g></g><g><g><use xlink:href="#gN5ZrbN" opacity="1" fill-opacity="0" stroke="#000000" stroke-width="1" stroke-opacity="1"></use></g></g><g><g><use xlink:href="#dJJRlD1MQ" opacity="1" fill-opacity="0" stroke="#000000" stroke-width="1" stroke-opacity="1"></use></g></g><g><g><use xlink:href="#blwtm1ilt" opacity="1" fill-opacity="0" stroke="#000000" stroke-width="1" stroke-opacity="1"></use></g></g><g><g><use xlink:href="#ePWDvA3HN" opacity="1" fill-opacity="0" stroke="#000000" stroke-width="1" stroke-opacity="1"></use></g></g><g><g><use xlink:href="#b15eKl0s6v" opacity="1" fill-opacity="0" stroke="#000000" stroke-width="1" stroke-opacity="1"></use></g></g><g><g><use xlink:href="#a1pBJ0Bbc9" opacity="1" fill-opacity="0" stroke="#000000" stroke-width="1" stroke-opacity="1"></use></g></g><g><g><use xlink:href="#a1ldA9IYek" opacity="1" fill-opacity="0" stroke="#000000" stroke-width="1" stroke-opacity="1"></use></g></g><g><g><use xlink:href="#f5WVP3jY5V" opacity="1" fill-opacity="0" stroke="#000000" stroke-width="1" stroke-opacity="1"></use></g></g><g><g><use xlink:href="#c93m7TBFK" opacity="1" fill-opacity="0" stroke="#000000" stroke-width="1" stroke-opacity="1"></use></g></g><g><g><use xlink:href="#d1cLQSxnV" opacity="1" fill-opacity="0" stroke="#000000" stroke-width="1" stroke-opacity="1"></use></g></g><g><g><use xlink:href="#ea7ajoGg8" opacity="1" fill-opacity="0" stroke="#000000" stroke-width="1" stroke-opacity="1"></use></g></g><g><g><use xlink:href="#b38leXUlJh" opacity="1" fill-opacity="0" stroke="#000000" stroke-width="1" stroke-opacity="1"></use></g></g><g><g><use xlink:href="#epHtZVw9n" opacity="1" fill-opacity="0" stroke="#000000" stroke-width="1" stroke-opacity="1"></use></g></g><g><g><use xlink:href="#awieGP6e" opacity="1" fill-opacity="0" stroke="#000000" stroke-width="1" stroke-opacity="1"></use></g></g><g><g><use xlink:href="#f1zoEiFNuG" opacity="1" fill-opacity="0" stroke="#000000" stroke-width="1" stroke-opacity="1"></use></g></g><g><g><use xlink:href="#bJvEbkJ5v" opacity="1" fill-opacity="0" stroke="#000000" stroke-width="1" stroke-opacity="1"></use></g></g><g><g><use xlink:href="#agcrJWlZt" opacity="1" fill-opacity="0" stroke="#000000" stroke-width="1" stroke-opacity="1"></use></g></g><g><g><use xlink:href="#aRHnxRvLa" opacity="1" fill-opacity="0" stroke="#000000" stroke-width="1" stroke-opacity="1"></use></g></g><g><g><use xlink:href="#a5OmuEsKEg" opacity="1" fill-opacity="0" stroke="#000000" stroke-width="1" stroke-opacity="1"></use></g></g><g><g><use xlink:href="#bc66KZgVs" opacity="1" fill-opacity="0" stroke="#000000" stroke-width="1" stroke-opacity="1"></use></g></g><g><g><use xlink:href="#aeb7d9vtW" opacity="1" fill-opacity="0" stroke="#000000" stroke-width="1" stroke-opacity="1"></use></g></g><g><g><use xlink:href="#a29QCzjWjJ" opacity="1" fill-opacity="0" stroke="#000000" stroke-width="1" stroke-opacity="1"></use></g></g><g><g><use xlink:href="#a5oZY7XBW" opacity="1" fill-opacity="0" stroke="#000000" stroke-width="1" stroke-opacity="1"></use></g></g><g><g><use xlink:href="#b1yj1XmUOD" opacity="1" fill-opacity="0" stroke="#000000" stroke-width="1" stroke-opacity="1"></use></g></g><g><g><use xlink:href="#kCFYKLtah" opacity="1" fill-opacity="0" stroke="#000000" stroke-width="1" stroke-opacity="1"></use></g></g><g><g><use xlink:href="#b1Cbc7vRH" opacity="1" fill-opacity="0" stroke="#000000" stroke-width="1" stroke-opacity="1"></use></g></g><g><use xlink:href="#bP2T2ZGy9" opacity="1" fill="#ffffff" fill-opacity="1"></use><g><use xlink:href="#bP2T2ZGy9" opacity="1" fill-opacity="0" stroke="#000000" stroke-width="4" stroke-opacity="1"></use></g></g><g><use xlink:href="#d1G9df3Zp0" opacity="1" fill="#000000" fill-opacity="1"></use></g></g></g></svg>